<mxfile host="app.diagrams.net" modified="2023-05-11T09:26:01.186Z" agent="Mozilla/5.0 (Macintosh; Intel Mac OS X 10_15_7) AppleWebKit/537.36 (KHTML, like Gecko) Chrome/113.0.0.0 Safari/537.36" etag="pdlWDA11VyeTlCTWiyc0" version="21.2.9" type="github">
  <diagram name="Page-1" id="kuUTJhznfEHe3Q5honYC">
    <mxGraphModel dx="2340" dy="1998" grid="1" gridSize="10" guides="1" tooltips="1" connect="1" arrows="1" fold="1" page="1" pageScale="1" pageWidth="827" pageHeight="1169" math="0" shadow="0">
      <root>
        <mxCell id="0" />
        <mxCell id="1" parent="0" />
        <mxCell id="2" value="Start" style="whiteSpace=wrap;strokeWidth=2;" parent="1" vertex="1">
          <mxGeometry y="92" width="50" height="34" as="geometry" />
        </mxCell>
        <mxCell id="3" value="Power Up" style="rounded=1;absoluteArcSize=1;arcSize=14;whiteSpace=wrap;strokeWidth=2;" parent="1" vertex="1">
          <mxGeometry x="100" y="92" width="83" height="34" as="geometry" />
        </mxCell>
        <mxCell id="4" value="System Check" style="rhombus;strokeWidth=2;whiteSpace=wrap;" parent="1" vertex="1">
          <mxGeometry x="233" y="36" width="147" height="147" as="geometry" />
        </mxCell>
        <mxCell id="5" value="Initialize System" style="whiteSpace=wrap;strokeWidth=2;" parent="1" vertex="1">
          <mxGeometry x="449" y="44" width="133" height="34" as="geometry" />
        </mxCell>
        <mxCell id="6" value="Display Error" style="whiteSpace=wrap;strokeWidth=2;" parent="1" vertex="1">
          <mxGeometry x="1258" y="176" width="106" height="34" as="geometry" />
        </mxCell>
        <mxCell id="7" value="System Ready" style="rounded=1;absoluteArcSize=1;arcSize=14;whiteSpace=wrap;strokeWidth=2;" parent="1" vertex="1">
          <mxGeometry x="632" y="44" width="113" height="34" as="geometry" />
        </mxCell>
        <mxCell id="8" value="Standby Mode" style="rounded=1;absoluteArcSize=1;arcSize=14;whiteSpace=wrap;strokeWidth=2;" parent="1" vertex="1">
          <mxGeometry x="824" y="44" width="114" height="34" as="geometry" />
        </mxCell>
        <mxCell id="9" value="User Input" style="rhombus;strokeWidth=2;whiteSpace=wrap;" parent="1" vertex="1">
          <mxGeometry x="988" width="122" height="122" as="geometry" />
        </mxCell>
        <mxCell id="10" value="Execute Command" style="whiteSpace=wrap;strokeWidth=2;" parent="1" vertex="1">
          <mxGeometry x="1238" y="86" width="148" height="34" as="geometry" />
        </mxCell>
        <mxCell id="11" value="System Shutdown" style="rounded=1;absoluteArcSize=1;arcSize=14;whiteSpace=wrap;strokeWidth=2;" parent="1" vertex="1">
          <mxGeometry x="1242" y="3" width="140" height="34" as="geometry" />
        </mxCell>
        <mxCell id="12" value="End" style="whiteSpace=wrap;strokeWidth=2;" parent="1" vertex="1">
          <mxGeometry x="1435" y="92" width="41" height="34" as="geometry" />
        </mxCell>
        <mxCell id="13" value="" style="curved=1;startArrow=none;endArrow=block;exitX=1.00015625;exitY=0.5068933823529411;entryX=0.00009412650602409639;entryY=0.5068933823529411;" parent="1" source="2" target="3" edge="1">
          <mxGeometry relative="1" as="geometry">
            <Array as="points" />
          </mxGeometry>
        </mxCell>
        <mxCell id="14" value="" style="curved=1;startArrow=none;endArrow=block;exitX=0.9967055722891566;exitY=0.5068933823529411;entryX=-0.0018601190476190475;entryY=0.4981930272108844;" parent="1" source="3" target="4" edge="1">
          <mxGeometry relative="1" as="geometry">
            <Array as="points" />
          </mxGeometry>
        </mxCell>
        <mxCell id="15" value="OK" style="curved=1;startArrow=none;endArrow=block;exitX=0.9965454931972789;exitY=0.2767409407897237;entryX=0.0036419172932330825;entryY=0.5045955882352942;" parent="1" source="4" target="5" edge="1">
          <mxGeometry relative="1" as="geometry">
            <Array as="points">
              <mxPoint x="414" y="61" />
            </Array>
          </mxGeometry>
        </mxCell>
        <mxCell id="16" value="FAIL" style="curved=1;startArrow=none;endArrow=block;exitX=0.9965454931972789;exitY=0.8828013956979439;entryX=0.00390625;entryY=0.4921875;" parent="1" source="4" target="6" edge="1">
          <mxGeometry relative="1" as="geometry">
            <Array as="points">
              <mxPoint x="414" y="193" />
            </Array>
          </mxGeometry>
        </mxCell>
        <mxCell id="17" value="" style="curved=1;startArrow=none;endArrow=block;exitX=1.0029370300751879;exitY=0.5045955882352942;entryX=0.003456858407079646;entryY=0.5045955882352942;" parent="1" source="5" target="7" edge="1">
          <mxGeometry relative="1" as="geometry">
            <Array as="points" />
          </mxGeometry>
        </mxCell>
        <mxCell id="18" value="" style="curved=1;startArrow=none;endArrow=block;exitX=1.0020049778761062;exitY=0.5045955882352942;entryX=-0.0006853070175438596;entryY=0.5045955882352942;" parent="1" source="7" target="8" edge="1">
          <mxGeometry relative="1" as="geometry">
            <Array as="points" />
          </mxGeometry>
        </mxCell>
        <mxCell id="19" value="" style="curved=1;startArrow=none;endArrow=block;exitX=1.0019873903508771;exitY=0.5045955882352942;entryX=0.0018570696721311474;entryY=0.501280737704918;" parent="1" source="8" target="9" edge="1">
          <mxGeometry relative="1" as="geometry">
            <Array as="points" />
          </mxGeometry>
        </mxCell>
        <mxCell id="20" value="Commands" style="curved=1;startArrow=none;endArrow=block;exitX=1.0044185450819672;exitY=0.6689967660220307;entryX=-0.0013724662162162163;entryY=0.49724264705882354;" parent="1" source="9" target="10" edge="1">
          <mxGeometry relative="1" as="geometry">
            <Array as="points">
              <mxPoint x="1174" y="103" />
            </Array>
          </mxGeometry>
        </mxCell>
        <mxCell id="21" value="Shutdown" style="curved=1;startArrow=none;endArrow=block;exitX=1.0044185450819672;exitY=0.33356470938780536;entryX=-0.0023716517857142855;entryY=0.48253676470588236;" parent="1" source="9" target="11" edge="1">
          <mxGeometry relative="1" as="geometry">
            <Array as="points">
              <mxPoint x="1174" y="19" />
            </Array>
          </mxGeometry>
        </mxCell>
        <mxCell id="22" value="" style="curved=1;startArrow=none;endArrow=block;exitX=0.9969587053571428;exitY=0.48253676470588236;entryX=0.3061759116908988;entryY=0.014246323529411764;" parent="1" source="11" target="12" edge="1">
          <mxGeometry relative="1" as="geometry">
            <Array as="points">
              <mxPoint x="1410" y="19" />
            </Array>
          </mxGeometry>
        </mxCell>
        <mxCell id="23" value="" style="curved=1;startArrow=none;endArrow=block;exitX=1.0078125;exitY=0.4921875;entryX=0.2904542477544909;entryY=0.9995404411764706;" parent="1" source="6" target="12" edge="1">
          <mxGeometry relative="1" as="geometry">
            <Array as="points">
              <mxPoint x="1410" y="193" />
            </Array>
          </mxGeometry>
        </mxCell>
        <mxCell id="RoLfHGSgRacZs7P57VVQ-23" value="结构图&lt;br&gt;" style="text;strokeColor=none;fillColor=none;html=1;fontSize=24;fontStyle=1;verticalAlign=middle;align=center;" parent="1" vertex="1">
          <mxGeometry x="10" y="-860" width="100" height="40" as="geometry" />
        </mxCell>
        <mxCell id="RoLfHGSgRacZs7P57VVQ-24" value="流程图" style="text;strokeColor=none;fillColor=none;html=1;fontSize=24;fontStyle=1;verticalAlign=middle;align=center;" parent="1" vertex="1">
          <mxGeometry y="-10" width="100" height="40" as="geometry" />
        </mxCell>
        <mxCell id="RoLfHGSgRacZs7P57VVQ-32" value="" style="rounded=0;whiteSpace=wrap;html=1;fillColor=#dae8fc;strokeColor=#6c8ebf;opacity=50;spacingLeft=0;labelPosition=center;verticalLabelPosition=middle;align=center;verticalAlign=middle;" parent="1" vertex="1">
          <mxGeometry x="110" y="-810" width="1250" height="570" as="geometry" />
        </mxCell>
        <mxCell id="RoLfHGSgRacZs7P57VVQ-33" value="业主" style="rounded=1;whiteSpace=wrap;html=1;fillColor=#1ba1e2;strokeColor=#006EAF;fontColor=#ffffff;fontSize=17;arcSize=18;" parent="1" vertex="1">
          <mxGeometry x="260" y="-780" width="110" height="50" as="geometry" />
        </mxCell>
        <mxCell id="2wtX0haqZMEfnTJBK97J-23" value="客家阿姨平台架构图&lt;br style=&quot;font-size: 37px;&quot;&gt;" style="text;strokeColor=none;fillColor=none;html=1;fontSize=37;fontStyle=1;verticalAlign=middle;align=center;strokeWidth=1;" vertex="1" parent="1">
          <mxGeometry x="632" y="-860" width="100" height="40" as="geometry" />
        </mxCell>
        <mxCell id="2wtX0haqZMEfnTJBK97J-26" value="用户层:" style="text;strokeColor=none;fillColor=none;html=1;fontSize=24;fontStyle=1;verticalAlign=middle;align=center;" vertex="1" parent="1">
          <mxGeometry x="133" y="-770" width="100" height="40" as="geometry" />
        </mxCell>
        <mxCell id="2wtX0haqZMEfnTJBK97J-28" value="招生人员" style="rounded=1;whiteSpace=wrap;html=1;fillColor=#1ba1e2;strokeColor=#006EAF;fontColor=#ffffff;fontSize=17;arcSize=18;" vertex="1" parent="1">
          <mxGeometry x="414" y="-780" width="110" height="50" as="geometry" />
        </mxCell>
        <mxCell id="2wtX0haqZMEfnTJBK97J-29" value="培训人员" style="rounded=1;whiteSpace=wrap;html=1;fillColor=#1ba1e2;strokeColor=#006EAF;fontColor=#ffffff;fontSize=17;arcSize=18;" vertex="1" parent="1">
          <mxGeometry x="560" y="-780" width="110" height="50" as="geometry" />
        </mxCell>
        <mxCell id="2wtX0haqZMEfnTJBK97J-30" value="客服" style="rounded=1;whiteSpace=wrap;html=1;fillColor=#1ba1e2;strokeColor=#006EAF;fontColor=#ffffff;fontSize=17;arcSize=18;" vertex="1" parent="1">
          <mxGeometry x="714" y="-780" width="110" height="50" as="geometry" />
        </mxCell>
        <mxCell id="2wtX0haqZMEfnTJBK97J-31" value="财务" style="rounded=1;whiteSpace=wrap;html=1;fillColor=#1ba1e2;strokeColor=#006EAF;fontColor=#ffffff;fontSize=17;arcSize=18;" vertex="1" parent="1">
          <mxGeometry x="880" y="-780" width="110" height="50" as="geometry" />
        </mxCell>
        <mxCell id="2wtX0haqZMEfnTJBK97J-32" value="运营" style="rounded=1;whiteSpace=wrap;html=1;fillColor=#1ba1e2;strokeColor=#006EAF;fontColor=#ffffff;fontSize=17;arcSize=18;" vertex="1" parent="1">
          <mxGeometry x="1050" y="-780" width="110" height="50" as="geometry" />
        </mxCell>
        <mxCell id="2wtX0haqZMEfnTJBK97J-33" value="超级管理员" style="rounded=1;whiteSpace=wrap;html=1;fillColor=#1ba1e2;strokeColor=#006EAF;fontColor=#ffffff;fontSize=17;arcSize=18;" vertex="1" parent="1">
          <mxGeometry x="1210" y="-780" width="110" height="50" as="geometry" />
        </mxCell>
        <mxCell id="2wtX0haqZMEfnTJBK97J-36" value="" style="rounded=0;html=1;spacingTop=0;labelBackgroundColor=none;labelBorderColor=none;whiteSpace=wrap;fontColor=default;fontFamily=Helvetica;fillStyle=auto;" vertex="1" parent="1">
          <mxGeometry x="140" y="-720" width="1180" height="60" as="geometry" />
        </mxCell>
      </root>
    </mxGraphModel>
  </diagram>
</mxfile>
